<svg xmlns="http://www.w3.org/2000/svg" viewBox="0 0 512 512" width="512" height="512">
  <defs>
    <linearGradient id="bg2" x1="0%" y1="0%" x2="100%" y2="100%">
      <stop offset="0%" stop-color="#0f172a"/>
      <stop offset="100%" stop-color="#020617"/>
    </linearGradient>
    <linearGradient id="strand2" x1="0%" y1="100%" x2="0%" y2="0%">
      <stop offset="0%" stop-color="#6366f1"/>
      <stop offset="55%" stop-color="#8b5cf6"/>
      <stop offset="100%" stop-color="#22d3ee"/>
    </linearGradient>
  </defs>
  <rect width="512" height="512" rx="112" fill="url(#bg2)"/>
  <g transform="translate(256 256)" fill="none" stroke="url(#strand2)" stroke-linecap="round">
    <!-- Archimedean-style three-arm spiral, expanding outward -->
    <path stroke-width="22" d="
      M 10 0
      A 10 10 0 0 1 -10 0
      A 24 24 0 0 1 38 0
      A 44 44 0 0 1 -50 0
      A 70 70 0 0 1 90 0
      A 100 100 0 0 1 -110 0
      A 134 134 0 0 1 158 0"/>
    <path stroke-width="22" opacity="0.92" d="
      M 10 0
      A 10 10 0 0 1 -10 0
      A 24 24 0 0 1 38 0
      A 44 44 0 0 1 -50 0
      A 70 70 0 0 1 90 0
      A 100 100 0 0 1 -110 0
      A 134 134 0 0 1 158 0" transform="rotate(120)"/>
    <path stroke-width="22" opacity="0.84" d="
      M 10 0
      A 10 10 0 0 1 -10 0
      A 24 24 0 0 1 38 0
      A 44 44 0 0 1 -50 0
      A 70 70 0 0 1 90 0
      A 100 100 0 0 1 -110 0
      A 134 134 0 0 1 158 0" transform="rotate(240)"/>
    <circle cx="0" cy="0" r="12" fill="#e0e7ff"/>
  </g>
</svg>
